<svg id="Livello_1" data-name="Livello 1" xmlns="http://www.w3.org/2000/svg" viewBox="0 0 2078.28 172.07"><defs><style>.cls-1{fill:#e2231a;}.cls-2{fill:#555759;}</style></defs><title>logo</title><path class="cls-1" d="M1283.38,227.54a28.68,28.68,0,0,1-4.22-7.89,13.17,13.17,0,0,1,0-6.87q.91-3.71,2.41-5.05a9.1,9.1,0,0,1,3.43-1.93q1.93-.59,6.08.47a47.28,47.28,0,0,0,9.19,1.34,82.21,82.21,0,0,0,10.73-.16q5.68-.44,11.64-.75a18.77,18.77,0,0,0,9.51-2.68q3.55-2.37,7-4.89a27.91,27.91,0,0,1,8.17-4,19.9,19.9,0,0,1,5.8,1.5,10.26,10.26,0,0,1,3.28,3.2,13.45,13.45,0,0,1,2.05,6.59q-.87,4.82-4.5,6.23a30.85,30.85,0,0,1-9.15,1.78,61,61,0,0,1-13.1-.83q-10.26,8.6-17.09,14.72t-7.77,7.85q12.23.95,13.1,2a8.83,8.83,0,0,1,1.5,3.08l-1.82,1.82-19.34-.55a165.29,165.29,0,0,1-15.67,12.23q-5.8,3.79-12.82,7.46t-11.84,4q-3.87-.39-5.29-2.6t-1.66-8.6a19.94,19.94,0,0,1,3-8.33,8.89,8.89,0,0,1,5.52-3.71q3.43-.75,5.37,1.18a4.37,4.37,0,0,1,1.46,4.14q-.47,2.21-3.79,2.29a4.8,4.8,0,0,0-4.58,2.6,4.26,4.26,0,0,0,.08,4.54q1.34,2,4.85.71a81.28,81.28,0,0,0,10.58-5.33A136.78,136.78,0,0,0,1292,241.51a20.11,20.11,0,0,1-5.21-.43c-.89-.29-1.4-.78-1.5-1.46s.74-1.43,2.53-2.25a11.82,11.82,0,0,1,4.81-1.22h5.92q8.92-8.6,24.54-22.41-13.26.79-19.65.51a55.87,55.87,0,0,1-9.27-.95,14.51,14.51,0,0,0-5.37-.32,3.6,3.6,0,0,0-3.2,2.49,4,4,0,0,0,.83,4,7.93,7.93,0,0,0,4.42,2.6q2.88.71,2.76,3.39a3.65,3.65,0,0,1-2.8,3.55Q1288.12,229.91,1283.38,227.54Zm63.89-19.06q3.59-.91,3-3.47a3.49,3.49,0,0,0-3-2.92,5.51,5.51,0,0,0-4.42,1.26,28.3,28.3,0,0,0-4.7,5.33A25.36,25.36,0,0,0,1347.27,208.48Z" transform="translate(0 -194.47)"/><path class="cls-1" d="M1307.85,257.45a46,46,0,0,0,10.77-8.88q5.56-6,8.64-7.1a19.32,19.32,0,0,1,6.79-1.14,5.79,5.79,0,0,1,2.45.63,2.47,2.47,0,0,1,1.26,1.85,7.65,7.65,0,0,1-.08,2.88,10.88,10.88,0,0,1-1.89,3.83,15.55,15.55,0,0,1-3.75,3.79,11.65,11.65,0,0,0-3,2.8,2.21,2.21,0,0,0-.12,2.49q.71,1.22,5.49.24a55.38,55.38,0,0,0,7.06-1.82q2.29-.83,4.89-2l.95,3.55q-5.76,2.68-10.26,4.58a35.92,35.92,0,0,1-9.47,2.53,34.69,34.69,0,0,1-5.05-.28,6.66,6.66,0,0,1-3.2-1.46,5,5,0,0,1-1.82-2.92,4.74,4.74,0,0,1,.59-3.39,11.21,11.21,0,0,1,2.84-3.16,17.55,17.55,0,0,1,4-2.41,10.64,10.64,0,0,0,3.67-2.56q1.54-1.66.75-2.53a2.2,2.2,0,0,0-2.29-.51q-1.5.36-7.1,6a36,36,0,0,1-11.21,8Z" transform="translate(0 -194.47)"/><path class="cls-1" d="M1347.27,250.65a36.82,36.82,0,0,1,7.69-5.94q3.55-1.93,5.56-2.8a20.08,20.08,0,0,1,5.56-1.26q4.65.16,6.27,1.22a5.15,5.15,0,0,1,2.13,2.45,7.44,7.44,0,0,1,.39,3.12q-.12,1.74,1.5,1.34t1.7,1.54a6.22,6.22,0,0,1-1.54,4,22.25,22.25,0,0,1-2.56,2.92,1.56,1.56,0,0,0-.55,1.85,2.9,2.9,0,0,0,2.17,1.5,8.56,8.56,0,0,0,4.36-.22,14.69,14.69,0,0,0,4.48-2,7.14,7.14,0,0,1,3.43-1.38,1.79,1.79,0,0,1,2,1.16,5,5,0,0,1-1.72,3.81,12.64,12.64,0,0,1-4.77,2.41,21.64,21.64,0,0,1-5,1q-1.89.08-2.29.08a14,14,0,0,1-6.79-1.34,9.43,9.43,0,0,1-3.87-3.71,25.64,25.64,0,0,0-5.8,2.29,24.85,24.85,0,0,1-5,2.13,18.77,18.77,0,0,1-5.33.71,6.49,6.49,0,0,1-4.16-1.85q-2.15-1.86-2.15-7Q1343.13,254.65,1347.27,250.65Zm7.54,1.12a12.61,12.61,0,0,0-3.71,4.38q-.79,1.93.47,3t4,.16a35.53,35.53,0,0,0,5.72-2.41,44.05,44.05,0,0,0,5.33-3.24,6.59,6.59,0,0,0,2.76-3.16,4.56,4.56,0,0,0-.28-3q-.67-1.58-3.16-1.34a14.78,14.78,0,0,0-5.37,1.74A32.46,32.46,0,0,0,1354.81,251.77Z" transform="translate(0 -194.47)"/><path class="cls-1" d="M1387.09,255.24a23.81,23.81,0,0,0,4.81-3.51,38.23,38.23,0,0,1,7.62-5.05q4.38-2.25,6.87-3.39a14.66,14.66,0,0,1,5.41-1.3,4.42,4.42,0,0,1,3.12,3.12,8,8,0,0,1-.39,4.66q-.91,2.49-6.59,8.41l12.43-7.3a21.11,21.11,0,0,1,5.52-2.49,3.44,3.44,0,0,1,3.59,1.3q1.5,1.78,0,5.17t-1,5.05q.51,1.66,7.58-.32a73.55,73.55,0,0,0,10.61-3.63,6.55,6.55,0,0,1-1.62,4.38q-1.38,1.3-8.6,3.63t-10.77,1.34q-3.55-1-4.5-3.08a6.18,6.18,0,0,1-.24-4.46q.71-2.37-4.14,1.1a84.13,84.13,0,0,1-8.48,5.45q-3.63,2-5.45,2.76a7.45,7.45,0,0,1-3.83-.83,3.48,3.48,0,0,1-1.54-3,4.64,4.64,0,0,1,2.09-3.95q2.25-1.81,4.34-3.79a8.22,8.22,0,0,0,2.56-4q.47-2.05-2.41-1.3t-7.89,4.22q-5,3.47-6.63,4.34a11.62,11.62,0,0,1-4.46,1.1Q1385.51,256,1387.09,255.24Z" transform="translate(0 -194.47)"/><path class="cls-1" d="M1463.76,242.26a1.58,1.58,0,0,1-.16,1.58,7.12,7.12,0,0,1-1.5,1.66,3.13,3.13,0,0,0-1.14,2.05,1.56,1.56,0,0,1-1.5,1.42,6.09,6.09,0,0,1-2.92-.36,5.93,5.93,0,0,0-2.72-.39,4.92,4.92,0,0,0-2.64,1.85q-1.5,1.7-2.64,3.24a11,11,0,0,0-1.66,3.08,3.25,3.25,0,0,0,.24,2.8,3.52,3.52,0,0,0,2.13,1.66,11.52,11.52,0,0,0,4.06.12,29.31,29.31,0,0,0,5.45-1.1q2.76-.83,5.41-1.78a26.64,26.64,0,0,0,3.83-1.62q1.18-.67,2.21,1.14a3.14,3.14,0,0,1-1.46,2.37q-1.15.63-3.16,1.58a34.14,34.14,0,0,1-4.26,1.66q-2.25.71-5,1.38a43.24,43.24,0,0,1-6,1h-1.66c-1-.1-2-.25-2.92-.43a6.77,6.77,0,0,1-2.84-1.38,8.72,8.72,0,0,1-2.45-3.39l-.16-1.5a12.17,12.17,0,0,1,1.34-4.58,22.55,22.55,0,0,1,3.08-4.58,20.71,20.71,0,0,1,4.26-3.79,24.16,24.16,0,0,1,4.22-2.33,8,8,0,0,0,2.45-1.34,6.33,6.33,0,0,1,2.21-1.18,8.69,8.69,0,0,1,3-.59,4,4,0,0,1,1.85.55A2.91,2.91,0,0,1,1463.76,242.26Z" transform="translate(0 -194.47)"/><path class="cls-1" d="M1468.93,251.61a16.83,16.83,0,0,1,3.35-4.58,40.77,40.77,0,0,1,4.66-4.1,13.7,13.7,0,0,1,4.77-2.37l1.82-.08a7.72,7.72,0,0,1,4.26,1.34q1.81,1.26,1.54,4.46a7.85,7.85,0,0,1-3.16,5.52,18,18,0,0,1-6.51,3.35q-3.63,1-3.91,1.85t1.18,1.82q1.46,1,6.55,1.26a28.28,28.28,0,0,0,8.33-.55,30.22,30.22,0,0,0,5.25-1.78,21.5,21.5,0,0,1,3.16-1.26q1.15-.32,1.85,1.18a14.08,14.08,0,0,1-4.5,4.3,30.24,30.24,0,0,1-6.12,2.49,37.28,37.28,0,0,1-9,1.34h-2.13q-5.76-.55-7.77-1.54a9.2,9.2,0,0,1-3.12-2.33,8.69,8.69,0,0,1-1.58-4A15.42,15.42,0,0,1,1468.93,251.61Zm5.92,1.1q4.82-1.58,6.43-3t1.38-2.6q-.24-1.18-2.68.08a9.18,9.18,0,0,0-3.35,2.56A27.18,27.18,0,0,0,1474.85,252.72Z" transform="translate(0 -194.47)"/><path class="cls-1" d="M1495.68,255.09a14.74,14.74,0,0,1,.51-3.87,2.82,2.82,0,0,1,1.46-1.82,5,5,0,0,1,2.6-.32q1.58.16,2.37,5.33a21.49,21.49,0,0,0,5.72-1.85l4.58-2.35q2.17-1.12,5.09-2.39a46,46,0,0,0,5.45-2.78,15.44,15.44,0,0,0,3.79-3,11.35,11.35,0,0,0,1.89-3,3,3,0,0,1,2.13-1.87,4.18,4.18,0,0,1,2.6.73q.83.69,1,3.22a6.47,6.47,0,0,1-.55,2.17,8.68,8.68,0,0,1-2.07,2.55,15.34,15.34,0,0,1-3.39,2.41q-1.8.93-4,2.27a22.85,22.85,0,0,0-4.38,3.59,16,16,0,0,0-3.16,4.36,39.75,39.75,0,0,1-2,3.83,7.57,7.57,0,0,1-3.12,2.8,17,17,0,0,1-6.47,1.36,13.54,13.54,0,0,1-4.58-.75q-1.66-.67-3.47-4A16.15,16.15,0,0,1,1495.68,255.09Zm11,5.49a10.59,10.59,0,0,0,4.12-1.56,16.68,16.68,0,0,0,3.81-3.59q1.93-2.39,1.7-3.26a39.54,39.54,0,0,1-7.32,4.5q-2.66,1.1-5.39,2A2.58,2.58,0,0,0,1506.69,260.57Z" transform="translate(0 -194.47)"/><path class="cls-1" d="M1552.23,242.26a1.58,1.58,0,0,1-.16,1.58,7.12,7.12,0,0,1-1.5,1.66,3.13,3.13,0,0,0-1.14,2.05,1.56,1.56,0,0,1-1.5,1.42,6.09,6.09,0,0,1-2.92-.36,5.93,5.93,0,0,0-2.72-.39,4.92,4.92,0,0,0-2.64,1.85q-1.5,1.7-2.64,3.24a11,11,0,0,0-1.66,3.08,3.25,3.25,0,0,0,.24,2.8,3.52,3.52,0,0,0,2.13,1.66,11.52,11.52,0,0,0,4.06.12,29.31,29.31,0,0,0,5.45-1.1q2.76-.83,5.41-1.78a26.64,26.64,0,0,0,3.83-1.62q1.18-.67,2.21,1.14a3.14,3.14,0,0,1-1.46,2.37q-1.15.63-3.16,1.58a34.14,34.14,0,0,1-4.26,1.66q-2.25.71-5,1.38a43.24,43.24,0,0,1-6,1h-1.66c-1-.1-2-.25-2.92-.43a6.77,6.77,0,0,1-2.84-1.38,8.72,8.72,0,0,1-2.45-3.39l-.16-1.5a12.17,12.17,0,0,1,1.34-4.58,22.55,22.55,0,0,1,3.08-4.58,20.71,20.71,0,0,1,4.26-3.79,24.16,24.16,0,0,1,4.22-2.33,8,8,0,0,0,2.45-1.34,6.33,6.33,0,0,1,2.21-1.18,8.69,8.69,0,0,1,3-.59,4,4,0,0,1,1.85.55A2.91,2.91,0,0,1,1552.23,242.26Z" transform="translate(0 -194.47)"/><path class="cls-1" d="M1564.19,257.85a3.9,3.9,0,0,0,3.12,2,5.76,5.76,0,0,0,3.51-1,25.56,25.56,0,0,1,3.91-2.09,26.77,26.77,0,0,0,4.38-2.45,4.32,4.32,0,0,0,2.13-3.67,4,4,0,0,0-1.66-3.43,3.1,3.1,0,0,1-1.38-3.12,3.18,3.18,0,0,1,1.74-2.6,12.65,12.65,0,0,1,4.85-.79q3.55.71,4.34,3.55a8.39,8.39,0,0,1-.12,5.29q-.91,2.45,2.25,4.42t5.64,1.3q2.49-.67,2.8,1.54-.39,2.37-1.3,2.84a13.38,13.38,0,0,1-3.67.87q-2.76.39-6.63-1.7t-5.52-.83q-1.66,1.26-5,3.28a38.08,38.08,0,0,1-6.51,3.2,20.93,20.93,0,0,1-7.3,1.18,9.38,9.38,0,0,1-5.37-3.91,11.11,11.11,0,0,1-1.58-5.8q.39-2.21,3.28-4.85a47.26,47.26,0,0,1,5.52-4.42A20.15,20.15,0,0,1,1571,244q2.72-.83,3.87.24a5,5,0,0,1,1.5,2.6,3,3,0,0,1-.32,2.49,3.26,3.26,0,0,1-2,1.26q-1.3.32-3.59.83a13.12,13.12,0,0,0-4.93,2.53Q1562.93,256,1564.19,257.85Z" transform="translate(0 -194.47)"/><path class="cls-1" d="M1635.26,253.27q3.71-2.29,6.83-4a23.33,23.33,0,0,0,6.51-5.84,112.12,112.12,0,0,1,9.59-10q6.19-5.84,11.33-10.18t10.22-8.09q5.09-3.75,9.83-7.34t9.35-6.83q4.62-3.23,7.46-4.85a11.26,11.26,0,0,1,4.26-1.7q3.08.32,4.18,1.93a17.88,17.88,0,0,1,1.74,3.12,4.28,4.28,0,0,1-.12,3.35,20,20,0,0,1-3.12,4.74,51.6,51.6,0,0,1-5.72,5.84q-3.35,3-6,5.33a22.56,22.56,0,0,0-3.35,3.51q-.75,1.15-2.17,3.51,5.21-2.68,8.8-4.3t6.67-2.72a44.89,44.89,0,0,1,6.87-1.82,10.83,10.83,0,0,1,5.92.16q2.13.87,3,4a12.89,12.89,0,0,1-2.21,4.77,18.84,18.84,0,0,1-3.47,4,14.61,14.61,0,0,1-3.39,2.09q-1.74.75.63,3a10.34,10.34,0,0,1,3,5.64,13.13,13.13,0,0,1-.79,7.26,25.42,25.42,0,0,1-5.21,8,50.9,50.9,0,0,1-7.73,7,63.71,63.71,0,0,1-9,5.37q-5,2.49-7.69,2.72-3.55-.71-4.62-6.2t-.08-8.09a4.87,4.87,0,0,1,3.47-3.24,4.16,4.16,0,0,1,4.1.87q1.62,1.5.08,3.55a4.12,4.12,0,0,0-.91,3.91q.63,1.86,3.28,1.14a23.5,23.5,0,0,0,6.2-3,52,52,0,0,0,6.12-4.46,29.54,29.54,0,0,0,4.42-4.7,11,11,0,0,0,2.09-6,10.1,10.1,0,0,0-1.38-6.12q-1.62-2.64-3.75-2.88a9.75,9.75,0,0,1-3.47-.95q-1.34-.71.16-2.21a6.1,6.1,0,0,1,3.63-1.78,8.83,8.83,0,0,0,4.58-2.49q2.45-2.21,2.37-4.46t-2.72-1.78a30.35,30.35,0,0,0-7.26,2.72q-4.62,2.25-9,4.5t-7.34,3.87a71.25,71.25,0,0,0-7.73,5.09,141.63,141.63,0,0,0-10.93,9.08q-6.19,5.6-8.33,7.73a26.65,26.65,0,0,1-5,3.87,28,28,0,0,0-5.21,4.1q-2.37,2.37-3.87,2.21a8.09,8.09,0,0,1-2.88-.87,2.66,2.66,0,0,1-1.5-2.33q-.12-1.62,3-4.85a78.25,78.25,0,0,1,7.69-6.87q4.58-3.63,10.81-7.73t10.85-7.22q4.62-3.12,6.75-4.5a27.91,27.91,0,0,0,5.6-5.72,102.7,102.7,0,0,1,7.18-8.09q3.71-3.75,6.83-7.1a18.7,18.7,0,0,0,4-5.72q.87-2.37.12-3.12t-4.7,1.89q-3.94,2.64-11.17,7.85t-11.84,8.68q-4.62,3.47-9.59,7.85t-10.1,9a63.84,63.84,0,0,0-7.85,8.17,62.24,62.24,0,0,1-4.7,5.56,38.76,38.76,0,0,1-9.43,6.87,4.68,4.68,0,0,1-4.77-.59Z" transform="translate(0 -194.47)"/><path class="cls-1" d="M1729.17,250.73a17.38,17.38,0,0,1,6.69-5.49,27.27,27.27,0,0,0,6.06-3.53,4.77,4.77,0,0,1,4.38-1.26,2.49,2.49,0,0,1,2.05,2.64,4.18,4.18,0,0,1-2.37,3.47,11.5,11.5,0,0,0-3.47,3,14.92,14.92,0,0,0-1.85,3.59,5.81,5.81,0,0,0,0,3.95,3.8,3.8,0,0,0,2.56,2.56,20.88,20.88,0,0,0,5.92.55,29.32,29.32,0,0,0,7.06-.83,20,20,0,0,0,5.33-2.17,5.25,5.25,0,0,1,3.87-1l.47,1.89a8.47,8.47,0,0,1-3,2.8,30.69,30.69,0,0,1-3.83,1.93,34.34,34.34,0,0,1-5.41,1.58q-3.51.79-8,1.34l-3.31.16a15.77,15.77,0,0,1-5.84-1.54,8.63,8.63,0,0,1-3-2.88,7.38,7.38,0,0,1-1.22-3.63,11.29,11.29,0,0,1,.43-3.61q.51-1.8-1.09.1a16.44,16.44,0,0,1-4.4,3.51q-2.8,1.62-4.74,2.58t-2.64-3Q1726.25,254.53,1729.17,250.73Zm38.32-31-1.42-.39q-2.13-2.45-3.24-3.55a9.44,9.44,0,0,1,3.95-3.95l1.5-.08q1.89.87,2,2.29a3.7,3.7,0,0,0,2,2.68l-.55,1.34A12.67,12.67,0,0,1,1767.49,219.69Z" transform="translate(0 -194.47)"/><path class="cls-1" d="M1766.35,250.65a36.82,36.82,0,0,1,7.69-5.94q3.55-1.93,5.56-2.8a20.08,20.08,0,0,1,5.56-1.26q4.65.16,6.27,1.22a5.15,5.15,0,0,1,2.13,2.45,7.44,7.44,0,0,1,.39,3.12q-.12,1.74,1.5,1.34t1.7,1.54a6.22,6.22,0,0,1-1.54,4,22.25,22.25,0,0,1-2.56,2.92,1.56,1.56,0,0,0-.55,1.85,2.9,2.9,0,0,0,2.17,1.5,8.56,8.56,0,0,0,4.36-.22,14.69,14.69,0,0,0,4.48-2A7.14,7.14,0,0,1,1807,257a1.79,1.79,0,0,1,2,1.16,5,5,0,0,1-1.72,3.81,12.64,12.64,0,0,1-4.77,2.41,21.64,21.64,0,0,1-5,1q-1.89.08-2.29.08a14,14,0,0,1-6.79-1.34,9.43,9.43,0,0,1-3.87-3.71,25.64,25.64,0,0,0-5.8,2.29,24.85,24.85,0,0,1-5,2.13,18.77,18.77,0,0,1-5.33.71,6.49,6.49,0,0,1-4.16-1.85q-2.15-1.86-2.15-7Q1762.2,254.65,1766.35,250.65Zm7.54,1.12a12.61,12.61,0,0,0-3.71,4.38q-.79,1.93.47,3t4,.16a35.53,35.53,0,0,0,5.72-2.41,44.05,44.05,0,0,0,5.33-3.24,6.59,6.59,0,0,0,2.76-3.16,4.56,4.56,0,0,0-.28-3q-.67-1.58-3.16-1.34a14.78,14.78,0,0,0-5.37,1.74A32.46,32.46,0,0,0,1773.88,251.77Z" transform="translate(0 -194.47)"/><path class="cls-1" d="M1806.16,255.24a23.81,23.81,0,0,0,4.81-3.51,38.23,38.23,0,0,1,7.62-5.05q4.38-2.25,6.87-3.39a14.66,14.66,0,0,1,5.41-1.3,4.42,4.42,0,0,1,3.12,3.12,8,8,0,0,1-.39,4.66q-.91,2.49-6.59,8.41l12.43-7.3a21.11,21.11,0,0,1,5.52-2.49,3.44,3.44,0,0,1,3.59,1.3q1.5,1.78,0,5.17t-1,5.05q.51,1.66,7.58-.32a73.55,73.55,0,0,0,10.61-3.63,6.55,6.55,0,0,1-1.62,4.38q-1.38,1.3-8.6,3.63t-10.77,1.34q-3.55-1-4.5-3.08a6.18,6.18,0,0,1-.24-4.46q.71-2.37-4.14,1.1a84.13,84.13,0,0,1-8.48,5.45q-3.63,2-5.45,2.76a7.45,7.45,0,0,1-3.83-.83,3.48,3.48,0,0,1-1.54-3,4.64,4.64,0,0,1,2.09-3.95q2.25-1.81,4.34-3.79a8.22,8.22,0,0,0,2.56-4q.47-2.05-2.41-1.3t-7.89,4.22q-5,3.47-6.63,4.34a11.62,11.62,0,0,1-4.46,1.1Q1804.58,256,1806.16,255.24Z" transform="translate(0 -194.47)"/><path class="cls-1" d="M1882.84,242.26a1.58,1.58,0,0,1-.16,1.58,7.12,7.12,0,0,1-1.5,1.66,3.13,3.13,0,0,0-1.14,2.05,1.56,1.56,0,0,1-1.5,1.42,6.09,6.09,0,0,1-2.92-.36,5.93,5.93,0,0,0-2.72-.39,4.92,4.92,0,0,0-2.64,1.85q-1.5,1.7-2.64,3.24a11,11,0,0,0-1.66,3.08,3.25,3.25,0,0,0,.24,2.8,3.52,3.52,0,0,0,2.13,1.66,11.52,11.52,0,0,0,4.06.12,29.31,29.31,0,0,0,5.45-1.1q2.76-.83,5.41-1.78a26.64,26.64,0,0,0,3.83-1.62q1.18-.67,2.21,1.14a3.14,3.14,0,0,1-1.46,2.37q-1.15.63-3.16,1.58a34.14,34.14,0,0,1-4.26,1.66q-2.25.71-5,1.38a43.24,43.24,0,0,1-6,1h-1.66c-1-.1-2-.25-2.92-.43a6.77,6.77,0,0,1-2.84-1.38,8.72,8.72,0,0,1-2.45-3.39l-.16-1.5a12.17,12.17,0,0,1,1.34-4.58,22.55,22.55,0,0,1,3.08-4.58,20.71,20.71,0,0,1,4.26-3.79,24.16,24.16,0,0,1,4.22-2.33,8,8,0,0,0,2.45-1.34,6.33,6.33,0,0,1,2.21-1.18,8.69,8.69,0,0,1,3-.59,4,4,0,0,1,1.85.55A2.91,2.91,0,0,1,1882.84,242.26Z" transform="translate(0 -194.47)"/><path class="cls-1" d="M1892.78,260.89a38.26,38.26,0,0,0,4.58-4.93q-9.2,4.38-11.4,4.4a2.4,2.4,0,0,1-2.64-2.11q.55-.91,4-2.33t7.1-3a70.54,70.54,0,0,0,7.77-4.08,78.25,78.25,0,0,0,10.18-7.71q6.08-5.25,10.93-10.1l7.3-7.3a43.32,43.32,0,0,0,3.71-4.1,5.6,5.6,0,0,1,3.08-2.13q4.18,1.26,4.3,3.24t-2.09,4.5a104.43,104.43,0,0,1-8.68,8.17q-6.47,5.64-12.9,11.17t-8.8,7.32a13.53,13.53,0,0,0-3.71,4.2q7.66-4.18,10.42-5.49a25.26,25.26,0,0,1,5.25-1.85,7.26,7.26,0,0,1,4.22.12,3.07,3.07,0,0,1,2,2.76,6.67,6.67,0,0,1-1.18,4.34q-1.42,2.25-2.21,3.28c-.53.68-.66,1.25-.39,1.7s1.4.5,3.39.16a26.49,26.49,0,0,0,6.16-1.89q3.16-1.38,5.13-2.33t2.92-.55q.95.39,1.42,3.08a95.27,95.27,0,0,1-10,4.5,34.51,34.51,0,0,1-5.43,1.3,29.56,29.56,0,0,1-4.16.43,12.54,12.54,0,0,1-4.08-.71,3.53,3.53,0,0,1-2.47-2.92q-.39-2.21,2.21-4.46t2.6-3q0-.79-2.09.28t-5,2.49l-5,2.49-5,2.53q-2.88,1.46-5.25,2.49a13.75,13.75,0,0,1-4.85,1.14,2.55,2.55,0,0,1-2.62-1.64Q1890.81,262.59,1892.78,260.89Z" transform="translate(0 -194.47)"/><path class="cls-1" d="M1943.72,250.73a17.38,17.38,0,0,1,6.69-5.49,27.33,27.33,0,0,0,6.06-3.53,4.77,4.77,0,0,1,4.38-1.26,2.5,2.5,0,0,1,2.05,2.64,4.19,4.19,0,0,1-2.37,3.47,11.43,11.43,0,0,0-3.47,3,14.82,14.82,0,0,0-1.85,3.59,5.79,5.79,0,0,0,0,3.95,3.8,3.8,0,0,0,2.56,2.56,20.88,20.88,0,0,0,5.92.55,29.34,29.34,0,0,0,7.06-.83,20,20,0,0,0,5.33-2.17,5.25,5.25,0,0,1,3.87-1l.47,1.89a8.52,8.52,0,0,1-3,2.8,30.88,30.88,0,0,1-3.83,1.93,34.43,34.43,0,0,1-5.41,1.58q-3.52.79-8,1.34l-3.31.16a15.77,15.77,0,0,1-5.84-1.54,8.63,8.63,0,0,1-3-2.88,7.38,7.38,0,0,1-1.22-3.63,11.29,11.29,0,0,1,.43-3.61q.51-1.8-1.09.1a16.44,16.44,0,0,1-4.4,3.51q-2.8,1.62-4.74,2.58t-2.64-3Q1940.8,254.53,1943.72,250.73Zm38.32-31-1.42-.39q-2.13-2.45-3.24-3.55a9.41,9.41,0,0,1,3.95-3.95l1.5-.08c1.26.58,1.92,1.34,2,2.29a3.69,3.69,0,0,0,2,2.68l-.55,1.34A12.69,12.69,0,0,1,1982,219.69Z" transform="translate(0 -194.47)"/><path class="cls-1" d="M1976.2,255.24a24,24,0,0,0,4.81-3.51,38.15,38.15,0,0,1,7.62-5.05q4.38-2.25,6.87-3.39a14.65,14.65,0,0,1,5.41-1.3,4.43,4.43,0,0,1,3.12,3.12,8.07,8.07,0,0,1-.39,4.66q-.91,2.49-6.59,8.41l12.43-7.3a21.07,21.07,0,0,1,5.52-2.49,3.44,3.44,0,0,1,3.59,1.3q1.5,1.78,0,5.17t-1,5.05q.51,1.66,7.58-.32a73.67,73.67,0,0,0,10.61-3.63,6.56,6.56,0,0,1-1.62,4.38q-1.39,1.3-8.6,3.63t-10.77,1.34q-3.55-1-4.5-3.08a6.18,6.18,0,0,1-.24-4.46q.71-2.37-4.14,1.1a84.45,84.45,0,0,1-8.48,5.45q-3.64,2-5.45,2.76a7.44,7.44,0,0,1-3.83-.83,3.47,3.47,0,0,1-1.54-3,4.63,4.63,0,0,1,2.09-3.95q2.25-1.81,4.34-3.79a8.24,8.24,0,0,0,2.56-4c.32-1.37-.49-1.8-2.41-1.3s-4.55,1.91-7.89,4.22-5.55,3.76-6.63,4.34a11.64,11.64,0,0,1-4.46,1.1Q1974.62,256,1976.2,255.24Z" transform="translate(0 -194.47)"/><path class="cls-1" d="M2035.23,250.73a17.37,17.37,0,0,1,6.69-5.49,27.29,27.29,0,0,0,6.06-3.53,4.77,4.77,0,0,1,4.38-1.26,2.5,2.5,0,0,1,2.05,2.64,4.19,4.19,0,0,1-2.37,3.47,11.43,11.43,0,0,0-3.47,3,14.82,14.82,0,0,0-1.85,3.59,5.79,5.79,0,0,0,0,3.95,3.8,3.8,0,0,0,2.56,2.56,20.88,20.88,0,0,0,5.92.55,29.34,29.34,0,0,0,7.06-.83,20,20,0,0,0,5.33-2.17,5.25,5.25,0,0,1,3.87-1l.47,1.89a8.52,8.52,0,0,1-3,2.8,30.88,30.88,0,0,1-3.83,1.93,34.43,34.43,0,0,1-5.41,1.58q-3.52.79-8,1.34l-3.31.16a15.76,15.76,0,0,1-5.84-1.54,8.59,8.59,0,0,1-3-2.88,7.32,7.32,0,0,1-1.22-3.63,11.13,11.13,0,0,1,.43-3.61q.51-1.8-1.09.1a16.47,16.47,0,0,1-4.4,3.51q-2.81,1.62-4.74,2.58t-2.64-3Q2032.31,254.53,2035.23,250.73Zm38.32-31-1.42-.39q-2.13-2.45-3.24-3.55a9.41,9.41,0,0,1,3.95-3.95l1.5-.08c1.26.58,1.92,1.34,2,2.29a3.69,3.69,0,0,0,2,2.68l-.55,1.34A12.69,12.69,0,0,1,2073.55,219.69Z" transform="translate(0 -194.47)"/><path class="cls-2" d="M1456.93,360l2.57-1.38a7.11,7.11,0,0,0,2.49,3.78,6.86,6.86,0,0,0,4.25,1.34,6.45,6.45,0,0,0,4.89-1.85,7.14,7.14,0,0,0,1.76-5.12,6.42,6.42,0,0,0-1.18-4q-1.18-1.58-5.08-3.65-5-2.64-6.63-4.65a8,8,0,0,1,.73-10.55,8.69,8.69,0,0,1,6.17-2.21,8.57,8.57,0,0,1,4.32,1,7.85,7.85,0,0,1,3,3.15l-2.32,1.4a5,5,0,0,0-2-2.16,6.25,6.25,0,0,0-3.12-.74,5,5,0,0,0-5.32,5.3q0,3.47,5.73,6.47l1.58.83q4.22,2.32,5.64,4.39a9.25,9.25,0,0,1,1.42,5.36,9.82,9.82,0,0,1-15.21,8A10.53,10.53,0,0,1,1456.93,360Z" transform="translate(0 -194.47)"/><path class="cls-2" d="M1490.62,365.58V335.39h-9.09v-2.82h21.2v2.82h-9.11v30.19Z" transform="translate(0 -194.47)"/><path class="cls-2" d="M1509.89,332.57h3v21.56q0,4.89,2.23,7.27t6.83,2.38q4.53,0,6.76-2.38t2.23-7.27V332.57h3v20.59q0,6.7-3,10t-9,3.3q-6.07,0-9-3.3t-3-10Z" transform="translate(0 -194.47)"/><path class="cls-2" d="M1544.29,365.58v-33h5.14a48.47,48.47,0,0,1,9.76.68,12.39,12.39,0,0,1,5,2.32,13.87,13.87,0,0,1,4.19,5.64,22.33,22.33,0,0,1,0,15.8,13.24,13.24,0,0,1-4.15,5.54,13.4,13.4,0,0,1-4.89,2.35,40.07,40.07,0,0,1-8.86.7h-6.16Zm3-2.59h4.22a31.61,31.61,0,0,0,7.26-.58,8.53,8.53,0,0,0,3.63-2,12.32,12.32,0,0,0,3.13-4.83,21.16,21.16,0,0,0,0-13.26,11.47,11.47,0,0,0-3.17-4.74,9,9,0,0,0-3.86-2,36.35,36.35,0,0,0-8-.59h-3.25Z" transform="translate(0 -194.47)"/><path class="cls-2" d="M1578.77,365.58v-33h3v33Z" transform="translate(0 -194.47)"/><path class="cls-2" d="M1626.09,349.14a16.91,16.91,0,0,1-1.33,6.64,17.21,17.21,0,0,1-3.84,5.6,18.08,18.08,0,0,1-19.28,3.78,17.61,17.61,0,0,1-5.72-3.78,17.41,17.41,0,0,1-3.85-5.63,16.85,16.85,0,0,1-1.32-6.62,17.11,17.11,0,0,1,1.32-6.69,17.33,17.33,0,0,1,3.85-5.65,16.73,16.73,0,0,1,5.66-3.72,19,19,0,0,1,13.66,0,17,17,0,0,1,5.67,3.71,17.41,17.41,0,0,1,3.85,5.65A17.11,17.11,0,0,1,1626.09,349.14Zm-17.69,14.63a14.4,14.4,0,0,0,5.55-1.08,14.75,14.75,0,0,0,4.72-23.95,14,14,0,0,0-4.68-3.16,14.54,14.54,0,0,0-5.59-1.08,14.23,14.23,0,0,0-5.53,1.08,14.65,14.65,0,0,0-4.69,3.16,15,15,0,0,0-3.16,4.77,15.16,15.16,0,0,0,0,11.25,14.78,14.78,0,0,0,3.16,4.77,14.21,14.21,0,0,0,4.65,3.17A14.44,14.44,0,0,0,1608.4,363.77Z" transform="translate(0 -194.47)"/><path class="cls-2" d="M1650.64,365.58V331.17L1674,358.79V332.57h2.8v34l-23.36-27.67v26.7Z" transform="translate(0 -194.47)"/><path class="cls-2" d="M1721.14,349.14a16.91,16.91,0,0,1-1.33,6.64,17.21,17.21,0,0,1-3.84,5.6,18.08,18.08,0,0,1-19.28,3.78,17.61,17.61,0,0,1-5.72-3.78,17.41,17.41,0,0,1-3.85-5.63,16.85,16.85,0,0,1-1.32-6.62,17.11,17.11,0,0,1,1.32-6.69,17.33,17.33,0,0,1,3.85-5.65,16.73,16.73,0,0,1,5.66-3.72,19,19,0,0,1,13.66,0,17,17,0,0,1,5.67,3.71,17.41,17.41,0,0,1,3.85,5.65A17.11,17.11,0,0,1,1721.14,349.14Zm-17.69,14.63a14.4,14.4,0,0,0,5.55-1.08,14.75,14.75,0,0,0,4.72-23.95,14,14,0,0,0-4.68-3.16,14.54,14.54,0,0,0-5.59-1.08,14.23,14.23,0,0,0-5.53,1.08,14.65,14.65,0,0,0-4.69,3.16,15,15,0,0,0-3.16,4.77,15.16,15.16,0,0,0,0,11.25,14.78,14.78,0,0,0,3.16,4.77,14.21,14.21,0,0,0,4.65,3.17A14.44,14.44,0,0,0,1703.45,363.77Z" transform="translate(0 -194.47)"/><path class="cls-2" d="M1733.42,365.58V335.39h-9.09v-2.82h21.2v2.82h-9.11v30.19Z" transform="translate(0 -194.47)"/><path class="cls-2" d="M1744.95,365.58l14.5-34.32,13.89,34.32h-3.27l-4.22-11.18h-13.48L1748,365.58Zm8.43-13.75h11.5l-5.64-14.36Z" transform="translate(0 -194.47)"/><path class="cls-2" d="M1799.39,365.58h-3.65l-11.59-15.74h-1.8v15.74h-3v-33h6.07q5.37,0,8,2.23t2.67,6.76a8,8,0,0,1-2.29,6.07,8.7,8.7,0,0,1-6.3,2.21Zm-17-30.4v12.2h3q4.19,0,5.85-1.34t1.66-4.57q0-3.41-1.71-4.85t-5.8-1.44Z" transform="translate(0 -194.47)"/><path class="cls-2" d="M1806,365.58v-33h3v33Z" transform="translate(0 -194.47)"/><path class="cls-2" d="M1819.57,365.58v-33h3v30.19h11.32v2.82Z" transform="translate(0 -194.47)"/><path class="cls-2" d="M1841,365.58v-33h16.35v2.82H1844v10.33h13.35v2.82H1844v14.23h13.35v2.82Z" transform="translate(0 -194.47)"/><path class="cls-1" d="M30.38,227.54a28.68,28.68,0,0,1-4.22-7.89,13.17,13.17,0,0,1,0-6.87q.91-3.71,2.41-5.05A9.1,9.1,0,0,1,32,205.8q1.93-.59,6.08.47a47.28,47.28,0,0,0,9.19,1.34A82.21,82.21,0,0,0,58,207.46q5.68-.44,11.64-.75A18.77,18.77,0,0,0,79.16,204q3.55-2.37,7-4.89a27.91,27.91,0,0,1,8.17-4,19.9,19.9,0,0,1,5.8,1.5,10.26,10.26,0,0,1,3.28,3.2,13.45,13.45,0,0,1,2.05,6.59q-.87,4.82-4.5,6.23a30.85,30.85,0,0,1-9.15,1.78,61,61,0,0,1-13.1-.83q-10.26,8.6-17.09,14.72t-7.77,7.85q12.23.95,13.1,2a8.83,8.83,0,0,1,1.5,3.08L66.61,243l-19.34-.55a165.29,165.29,0,0,1-15.67,12.23q-5.8,3.79-12.82,7.46t-11.84,4q-3.87-.39-5.29-2.6T0,254.93a19.94,19.94,0,0,1,3-8.33,8.89,8.89,0,0,1,5.52-3.71q3.43-.75,5.37,1.18a4.37,4.37,0,0,1,1.46,4.14q-.47,2.21-3.79,2.29a4.8,4.8,0,0,0-4.58,2.6A4.26,4.26,0,0,0,7,257.65q1.34,2,4.85.71A81.28,81.28,0,0,0,22.45,253,136.78,136.78,0,0,0,39,241.51a20.11,20.11,0,0,1-5.21-.43c-.89-.29-1.4-.78-1.5-1.46s.74-1.43,2.53-2.25a11.82,11.82,0,0,1,4.81-1.22h5.92q8.92-8.6,24.54-22.41-13.26.79-19.65.51a55.87,55.87,0,0,1-9.27-.95,14.51,14.51,0,0,0-5.37-.32,3.6,3.6,0,0,0-3.2,2.49,4,4,0,0,0,.83,4,7.93,7.93,0,0,0,4.42,2.6q2.88.71,2.76,3.39A3.65,3.65,0,0,1,37.8,229Q35.12,229.91,30.38,227.54Zm63.89-19.06q3.59-.91,3-3.47a3.49,3.49,0,0,0-3-2.92,5.51,5.51,0,0,0-4.42,1.26,28.3,28.3,0,0,0-4.7,5.33A25.36,25.36,0,0,0,94.27,208.48Z" transform="translate(0 -194.47)"/><path class="cls-1" d="M54.85,257.45a46,46,0,0,0,10.77-8.88q5.56-6,8.64-7.1a19.32,19.32,0,0,1,6.79-1.14,5.79,5.79,0,0,1,2.45.63,2.47,2.47,0,0,1,1.26,1.85,7.65,7.65,0,0,1-.08,2.88,10.88,10.88,0,0,1-1.89,3.83A15.55,15.55,0,0,1,79,253.31a11.65,11.65,0,0,0-3,2.8,2.21,2.21,0,0,0-.12,2.49q.71,1.22,5.49.24A55.38,55.38,0,0,0,88.47,257q2.29-.83,4.89-2l.95,3.55q-5.76,2.68-10.26,4.58a35.92,35.92,0,0,1-9.47,2.53,34.69,34.69,0,0,1-5.05-.28,6.66,6.66,0,0,1-3.2-1.46A5,5,0,0,1,64.52,261a4.74,4.74,0,0,1,.59-3.39A11.21,11.21,0,0,1,68,254.46,17.55,17.55,0,0,1,72,252a10.64,10.64,0,0,0,3.67-2.56q1.54-1.66.75-2.53a2.2,2.2,0,0,0-2.29-.51q-1.5.36-7.1,6a36,36,0,0,1-11.21,8Z" transform="translate(0 -194.47)"/><path class="cls-1" d="M94.27,250.65a36.82,36.82,0,0,1,7.69-5.94q3.55-1.93,5.56-2.8a20.08,20.08,0,0,1,5.56-1.26q4.65.16,6.27,1.22a5.15,5.15,0,0,1,2.13,2.45,7.44,7.44,0,0,1,.39,3.12q-.12,1.74,1.5,1.34t1.7,1.54a6.22,6.22,0,0,1-1.54,4,22.25,22.25,0,0,1-2.56,2.92,1.56,1.56,0,0,0-.55,1.85,2.9,2.9,0,0,0,2.17,1.5,8.56,8.56,0,0,0,4.36-.22,14.69,14.69,0,0,0,4.48-2,7.14,7.14,0,0,1,3.43-1.38,1.79,1.79,0,0,1,2,1.16,5,5,0,0,1-1.72,3.81,12.64,12.64,0,0,1-4.77,2.41,21.64,21.64,0,0,1-5,1q-1.89.08-2.29.08a14,14,0,0,1-6.79-1.34,9.43,9.43,0,0,1-3.87-3.71,25.64,25.64,0,0,0-5.8,2.29,24.85,24.85,0,0,1-5,2.13,18.77,18.77,0,0,1-5.33.71,6.49,6.49,0,0,1-4.16-1.85q-2.15-1.86-2.15-7Q90.13,254.65,94.27,250.65Zm7.54,1.12a12.61,12.61,0,0,0-3.71,4.38q-.79,1.93.47,3t4,.16a35.53,35.53,0,0,0,5.72-2.41,44.05,44.05,0,0,0,5.33-3.24,6.59,6.59,0,0,0,2.76-3.16,4.56,4.56,0,0,0-.28-3q-.67-1.58-3.16-1.34a14.78,14.78,0,0,0-5.37,1.74A32.46,32.46,0,0,0,101.81,251.77Z" transform="translate(0 -194.47)"/><path class="cls-1" d="M134.09,255.24a23.81,23.81,0,0,0,4.81-3.51,38.23,38.23,0,0,1,7.62-5.05q4.38-2.25,6.87-3.39a14.66,14.66,0,0,1,5.41-1.3,4.42,4.42,0,0,1,3.12,3.12,8,8,0,0,1-.39,4.66q-.91,2.49-6.59,8.41l12.43-7.3a21.11,21.11,0,0,1,5.52-2.49,3.44,3.44,0,0,1,3.59,1.3q1.5,1.78,0,5.17t-1,5.05q.51,1.66,7.58-.32A73.55,73.55,0,0,0,193.67,256a6.55,6.55,0,0,1-1.62,4.38q-1.38,1.3-8.6,3.63t-10.77,1.34q-3.55-1-4.5-3.08a6.18,6.18,0,0,1-.24-4.46q.71-2.37-4.14,1.1a84.13,84.13,0,0,1-8.48,5.45q-3.63,2-5.45,2.76a7.45,7.45,0,0,1-3.83-.83,3.48,3.48,0,0,1-1.54-3,4.64,4.64,0,0,1,2.09-3.95q2.25-1.81,4.34-3.79a8.22,8.22,0,0,0,2.56-4q.47-2.05-2.41-1.3t-7.89,4.22q-5,3.47-6.63,4.34a11.62,11.62,0,0,1-4.46,1.1Q132.51,256,134.09,255.24Z" transform="translate(0 -194.47)"/><path class="cls-1" d="M210.76,242.26a1.58,1.58,0,0,1-.16,1.58,7.12,7.12,0,0,1-1.5,1.66,3.13,3.13,0,0,0-1.14,2.05,1.56,1.56,0,0,1-1.5,1.42,6.09,6.09,0,0,1-2.92-.36,5.93,5.93,0,0,0-2.72-.39,4.92,4.92,0,0,0-2.64,1.85q-1.5,1.7-2.64,3.24a11,11,0,0,0-1.66,3.08,3.25,3.25,0,0,0,.24,2.8,3.52,3.52,0,0,0,2.13,1.66,11.52,11.52,0,0,0,4.06.12,29.31,29.31,0,0,0,5.45-1.1q2.76-.83,5.41-1.78a26.64,26.64,0,0,0,3.83-1.62q1.18-.67,2.21,1.14a3.14,3.14,0,0,1-1.46,2.37q-1.15.63-3.16,1.58a34.14,34.14,0,0,1-4.26,1.66q-2.25.71-5,1.38a43.24,43.24,0,0,1-6,1h-1.66c-1-.1-2-.25-2.92-.43a6.77,6.77,0,0,1-2.84-1.38,8.72,8.72,0,0,1-2.45-3.39l-.16-1.5a12.17,12.17,0,0,1,1.34-4.58,22.55,22.55,0,0,1,3.08-4.58,20.71,20.71,0,0,1,4.26-3.79,24.16,24.16,0,0,1,4.22-2.33,8,8,0,0,0,2.45-1.34,6.33,6.33,0,0,1,2.21-1.18,8.69,8.69,0,0,1,3-.59,4,4,0,0,1,1.85.55A2.91,2.91,0,0,1,210.76,242.26Z" transform="translate(0 -194.47)"/><path class="cls-1" d="M215.93,251.61a16.83,16.83,0,0,1,3.35-4.58,40.77,40.77,0,0,1,4.66-4.1,13.7,13.7,0,0,1,4.77-2.37l1.82-.08a7.72,7.72,0,0,1,4.26,1.34q1.81,1.26,1.54,4.46a7.85,7.85,0,0,1-3.16,5.52,18,18,0,0,1-6.51,3.35q-3.63,1-3.91,1.85t1.18,1.82q1.46,1,6.55,1.26a28.28,28.28,0,0,0,8.33-.55,30.22,30.22,0,0,0,5.25-1.78,21.5,21.5,0,0,1,3.16-1.26q1.15-.32,1.85,1.18a14.08,14.08,0,0,1-4.5,4.3,30.24,30.24,0,0,1-6.12,2.49,37.28,37.28,0,0,1-9,1.34h-2.13q-5.76-.55-7.77-1.54a9.2,9.2,0,0,1-3.12-2.33,8.69,8.69,0,0,1-1.58-4A15.42,15.42,0,0,1,215.93,251.61Zm5.92,1.1q4.82-1.58,6.43-3t1.38-2.6q-.24-1.18-2.68.08a9.18,9.18,0,0,0-3.35,2.56A27.18,27.18,0,0,0,221.85,252.72Z" transform="translate(0 -194.47)"/><path class="cls-1" d="M242.68,255.09a14.74,14.74,0,0,1,.51-3.87,2.82,2.82,0,0,1,1.46-1.82,5,5,0,0,1,2.6-.32q1.58.16,2.37,5.33a21.49,21.49,0,0,0,5.72-1.85l4.58-2.35q2.17-1.12,5.09-2.39a46,46,0,0,0,5.45-2.78,15.44,15.44,0,0,0,3.79-3,11.35,11.35,0,0,0,1.89-3,3,3,0,0,1,2.13-1.87,4.18,4.18,0,0,1,2.6.73q.83.69,1,3.22a6.47,6.47,0,0,1-.55,2.17,8.68,8.68,0,0,1-2.07,2.55,15.34,15.34,0,0,1-3.39,2.41q-1.8.93-4,2.27a22.85,22.85,0,0,0-4.38,3.59,16,16,0,0,0-3.16,4.36,39.75,39.75,0,0,1-2,3.83,7.57,7.57,0,0,1-3.12,2.8,17,17,0,0,1-6.47,1.36,13.54,13.54,0,0,1-4.58-.75q-1.66-.67-3.47-4A16.15,16.15,0,0,1,242.68,255.09Zm11,5.49a10.59,10.59,0,0,0,4.12-1.56,16.68,16.68,0,0,0,3.81-3.59q1.93-2.39,1.7-3.26a39.54,39.54,0,0,1-7.32,4.5q-2.66,1.1-5.39,2A2.58,2.58,0,0,0,253.69,260.57Z" transform="translate(0 -194.47)"/><path class="cls-1" d="M299.23,242.26a1.58,1.58,0,0,1-.16,1.58,7.12,7.12,0,0,1-1.5,1.66,3.13,3.13,0,0,0-1.14,2.05,1.56,1.56,0,0,1-1.5,1.42,6.09,6.09,0,0,1-2.92-.36,5.93,5.93,0,0,0-2.72-.39,4.92,4.92,0,0,0-2.64,1.85q-1.5,1.7-2.64,3.24a11,11,0,0,0-1.66,3.08,3.25,3.25,0,0,0,.24,2.8,3.52,3.52,0,0,0,2.13,1.66,11.52,11.52,0,0,0,4.06.12,29.31,29.31,0,0,0,5.45-1.1q2.76-.83,5.41-1.78a26.64,26.64,0,0,0,3.83-1.62q1.18-.67,2.21,1.14A3.14,3.14,0,0,1,304.2,260q-1.15.63-3.16,1.58a34.14,34.14,0,0,1-4.26,1.66q-2.25.71-5,1.38a43.24,43.24,0,0,1-6,1h-1.66c-1-.1-2-.25-2.92-.43a6.77,6.77,0,0,1-2.84-1.38,8.72,8.72,0,0,1-2.45-3.39l-.16-1.5a12.17,12.17,0,0,1,1.34-4.58,22.55,22.55,0,0,1,3.08-4.58,20.71,20.71,0,0,1,4.26-3.79,24.16,24.16,0,0,1,4.22-2.33,8,8,0,0,0,2.45-1.34,6.33,6.33,0,0,1,2.21-1.18,8.69,8.69,0,0,1,3-.59,4,4,0,0,1,1.85.55A2.91,2.91,0,0,1,299.23,242.26Z" transform="translate(0 -194.47)"/><path class="cls-1" d="M311.19,257.85a3.9,3.9,0,0,0,3.12,2,5.76,5.76,0,0,0,3.51-1,25.56,25.56,0,0,1,3.91-2.09,26.77,26.77,0,0,0,4.38-2.45,4.32,4.32,0,0,0,2.13-3.67,4,4,0,0,0-1.66-3.43A3.1,3.1,0,0,1,325.2,244a3.18,3.18,0,0,1,1.74-2.6,12.65,12.65,0,0,1,4.85-.79q3.55.71,4.34,3.55a8.39,8.39,0,0,1-.12,5.29q-.91,2.45,2.25,4.42t5.64,1.3q2.49-.67,2.8,1.54-.39,2.37-1.3,2.84a13.38,13.38,0,0,1-3.67.87q-2.76.39-6.63-1.7t-5.52-.83q-1.66,1.26-5,3.28a38.08,38.08,0,0,1-6.51,3.2,20.93,20.93,0,0,1-7.3,1.18,9.38,9.38,0,0,1-5.37-3.91,11.11,11.11,0,0,1-1.58-5.8q.39-2.21,3.28-4.85a47.26,47.26,0,0,1,5.52-4.42A20.15,20.15,0,0,1,318,244q2.72-.83,3.87.24a5,5,0,0,1,1.5,2.6,3,3,0,0,1-.32,2.49,3.26,3.26,0,0,1-2,1.26q-1.3.32-3.59.83a13.12,13.12,0,0,0-4.93,2.53Q309.93,256,311.19,257.85Z" transform="translate(0 -194.47)"/><path class="cls-1" d="M382.26,253.27q3.71-2.29,6.83-4a23.33,23.33,0,0,0,6.51-5.84,112.12,112.12,0,0,1,9.59-10q6.19-5.84,11.33-10.18t10.22-8.09q5.09-3.75,9.83-7.34t9.35-6.83q4.62-3.23,7.46-4.85a11.26,11.26,0,0,1,4.26-1.7q3.08.32,4.18,1.93a17.88,17.88,0,0,1,1.74,3.12,4.28,4.28,0,0,1-.12,3.35,20,20,0,0,1-3.12,4.74,51.6,51.6,0,0,1-5.72,5.84q-3.35,3-6,5.33a22.56,22.56,0,0,0-3.35,3.51q-.75,1.15-2.17,3.51,5.21-2.68,8.8-4.3t6.67-2.72a44.89,44.89,0,0,1,6.87-1.82,10.83,10.83,0,0,1,5.92.16q2.13.87,3,4a12.89,12.89,0,0,1-2.21,4.77,18.84,18.84,0,0,1-3.47,4,14.61,14.61,0,0,1-3.39,2.09q-1.74.75.63,3a10.34,10.34,0,0,1,3,5.64,13.13,13.13,0,0,1-.79,7.26,25.42,25.42,0,0,1-5.21,8,50.9,50.9,0,0,1-7.73,7,63.71,63.71,0,0,1-9,5.37q-5,2.49-7.69,2.72-3.55-.71-4.62-6.2t-.08-8.09a4.87,4.87,0,0,1,3.47-3.24,4.16,4.16,0,0,1,4.1.87q1.62,1.5.08,3.55a4.12,4.12,0,0,0-.91,3.91q.63,1.86,3.28,1.14a23.5,23.5,0,0,0,6.2-3,52,52,0,0,0,6.12-4.46,29.54,29.54,0,0,0,4.42-4.7,11,11,0,0,0,2.09-6,10.1,10.1,0,0,0-1.38-6.12q-1.62-2.64-3.75-2.88a9.75,9.75,0,0,1-3.47-.95q-1.34-.71.16-2.21a6.1,6.1,0,0,1,3.63-1.78,8.83,8.83,0,0,0,4.58-2.49q2.45-2.21,2.37-4.46t-2.72-1.78a30.35,30.35,0,0,0-7.26,2.72q-4.62,2.25-9,4.5t-7.34,3.87a71.25,71.25,0,0,0-7.73,5.09,141.63,141.63,0,0,0-10.93,9.08q-6.19,5.6-8.33,7.73a26.65,26.65,0,0,1-5,3.87,28,28,0,0,0-5.21,4.1q-2.37,2.37-3.87,2.21a8.09,8.09,0,0,1-2.88-.87,2.66,2.66,0,0,1-1.5-2.33q-.12-1.62,3-4.85a78.25,78.25,0,0,1,7.69-6.87q4.58-3.63,10.81-7.73t10.85-7.22q4.62-3.12,6.75-4.5a27.91,27.91,0,0,0,5.6-5.72,102.7,102.7,0,0,1,7.18-8.09q3.71-3.75,6.83-7.1a18.7,18.7,0,0,0,4-5.72q.87-2.37.12-3.12t-4.7,1.89q-3.94,2.64-11.17,7.85t-11.84,8.68q-4.62,3.47-9.59,7.85t-10.1,9a63.84,63.84,0,0,0-7.85,8.17,62.24,62.24,0,0,1-4.7,5.56,38.76,38.76,0,0,1-9.43,6.87,4.68,4.68,0,0,1-4.77-.59Z" transform="translate(0 -194.47)"/><path class="cls-1" d="M476.17,250.73a17.38,17.38,0,0,1,6.69-5.49,27.27,27.27,0,0,0,6.06-3.53,4.77,4.77,0,0,1,4.38-1.26,2.49,2.49,0,0,1,2.05,2.64,4.18,4.18,0,0,1-2.37,3.47,11.5,11.5,0,0,0-3.47,3,14.92,14.92,0,0,0-1.85,3.59,5.81,5.81,0,0,0,0,3.95,3.8,3.8,0,0,0,2.56,2.56,20.88,20.88,0,0,0,5.92.55,29.32,29.32,0,0,0,7.06-.83,20,20,0,0,0,5.33-2.17,5.25,5.25,0,0,1,3.87-1l.47,1.89a8.47,8.47,0,0,1-3,2.8A30.69,30.69,0,0,1,506,262.9a34.34,34.34,0,0,1-5.41,1.58q-3.51.79-8,1.34l-3.31.16a15.77,15.77,0,0,1-5.84-1.54,8.63,8.63,0,0,1-3-2.88,7.38,7.38,0,0,1-1.22-3.63,11.29,11.29,0,0,1,.43-3.61q.51-1.8-1.09.1a16.44,16.44,0,0,1-4.4,3.51q-2.8,1.62-4.74,2.58t-2.64-3Q473.25,254.53,476.17,250.73Zm38.32-31-1.42-.39q-2.13-2.45-3.24-3.55a9.44,9.44,0,0,1,3.95-3.95l1.5-.08q1.89.87,2,2.29a3.7,3.7,0,0,0,2,2.68l-.55,1.34A12.67,12.67,0,0,1,514.49,219.69Z" transform="translate(0 -194.47)"/><path class="cls-1" d="M513.35,250.65a36.82,36.82,0,0,1,7.69-5.94q3.55-1.93,5.56-2.8a20.08,20.08,0,0,1,5.56-1.26q4.65.16,6.27,1.22a5.15,5.15,0,0,1,2.13,2.45,7.44,7.44,0,0,1,.39,3.12q-.12,1.74,1.5,1.34t1.7,1.54a6.22,6.22,0,0,1-1.54,4,22.25,22.25,0,0,1-2.56,2.92,1.56,1.56,0,0,0-.55,1.85,2.9,2.9,0,0,0,2.17,1.5,8.56,8.56,0,0,0,4.36-.22,14.69,14.69,0,0,0,4.48-2A7.14,7.14,0,0,1,554,257a1.79,1.79,0,0,1,2,1.16,5,5,0,0,1-1.72,3.81,12.64,12.64,0,0,1-4.77,2.41,21.64,21.64,0,0,1-5,1q-1.89.08-2.29.08a14,14,0,0,1-6.79-1.34,9.43,9.43,0,0,1-3.87-3.71,25.64,25.64,0,0,0-5.8,2.29,24.85,24.85,0,0,1-5,2.13,18.77,18.77,0,0,1-5.33.71,6.49,6.49,0,0,1-4.16-1.85q-2.15-1.86-2.15-7Q509.2,254.65,513.35,250.65Zm7.54,1.12a12.61,12.61,0,0,0-3.71,4.38q-.79,1.93.47,3t4,.16a35.53,35.53,0,0,0,5.72-2.41,44.05,44.05,0,0,0,5.33-3.24,6.59,6.59,0,0,0,2.76-3.16,4.56,4.56,0,0,0-.28-3q-.67-1.58-3.16-1.34a14.78,14.78,0,0,0-5.37,1.74A32.46,32.46,0,0,0,520.88,251.77Z" transform="translate(0 -194.47)"/><path class="cls-1" d="M553.16,255.24a23.81,23.81,0,0,0,4.81-3.51,38.23,38.23,0,0,1,7.62-5.05q4.38-2.25,6.87-3.39a14.66,14.66,0,0,1,5.41-1.3A4.42,4.42,0,0,1,581,245.1a8,8,0,0,1-.39,4.66q-.91,2.49-6.59,8.41l12.43-7.3a21.11,21.11,0,0,1,5.52-2.49,3.44,3.44,0,0,1,3.59,1.3q1.5,1.78,0,5.17t-1,5.05q.51,1.66,7.58-.32A73.55,73.55,0,0,0,612.75,256a6.55,6.55,0,0,1-1.62,4.38q-1.38,1.3-8.6,3.63t-10.77,1.34q-3.55-1-4.5-3.08a6.18,6.18,0,0,1-.24-4.46q.71-2.37-4.14,1.1a84.13,84.13,0,0,1-8.48,5.45q-3.63,2-5.45,2.76a7.45,7.45,0,0,1-3.83-.83,3.48,3.48,0,0,1-1.54-3,4.64,4.64,0,0,1,2.09-3.95q2.25-1.81,4.34-3.79a8.22,8.22,0,0,0,2.56-4q.47-2.05-2.41-1.3t-7.89,4.22q-5,3.47-6.63,4.34a11.62,11.62,0,0,1-4.46,1.1Q551.58,256,553.16,255.24Z" transform="translate(0 -194.47)"/><path class="cls-1" d="M629.84,242.26a1.58,1.58,0,0,1-.16,1.58,7.12,7.12,0,0,1-1.5,1.66,3.13,3.13,0,0,0-1.14,2.05,1.56,1.56,0,0,1-1.5,1.42,6.09,6.09,0,0,1-2.92-.36,5.93,5.93,0,0,0-2.72-.39,4.92,4.92,0,0,0-2.64,1.85q-1.5,1.7-2.64,3.24a11,11,0,0,0-1.66,3.08,3.25,3.25,0,0,0,.24,2.8,3.52,3.52,0,0,0,2.13,1.66,11.52,11.52,0,0,0,4.06.12,29.31,29.31,0,0,0,5.45-1.1q2.76-.83,5.41-1.78a26.64,26.64,0,0,0,3.83-1.62q1.18-.67,2.21,1.14a3.14,3.14,0,0,1-1.46,2.37q-1.15.63-3.16,1.58a34.14,34.14,0,0,1-4.26,1.66q-2.25.71-5,1.38a43.24,43.24,0,0,1-6,1h-1.66c-1-.1-2-.25-2.92-.43a6.77,6.77,0,0,1-2.84-1.38,8.72,8.72,0,0,1-2.45-3.39l-.16-1.5a12.17,12.17,0,0,1,1.34-4.58,22.55,22.55,0,0,1,3.08-4.58,20.71,20.71,0,0,1,4.26-3.79,24.16,24.16,0,0,1,4.22-2.33,8,8,0,0,0,2.45-1.34,6.33,6.33,0,0,1,2.21-1.18,8.69,8.69,0,0,1,3-.59,4,4,0,0,1,1.85.55A2.91,2.91,0,0,1,629.84,242.26Z" transform="translate(0 -194.47)"/><path class="cls-1" d="M639.78,260.89a38.26,38.26,0,0,0,4.58-4.93q-9.2,4.38-11.4,4.4a2.4,2.4,0,0,1-2.64-2.11q.55-.91,4-2.33t7.1-3a70.54,70.54,0,0,0,7.77-4.08,78.25,78.25,0,0,0,10.18-7.71q6.08-5.25,10.93-10.1l7.3-7.3a43.32,43.32,0,0,0,3.71-4.1,5.6,5.6,0,0,1,3.08-2.13q4.18,1.26,4.3,3.24t-2.09,4.5a104.43,104.43,0,0,1-8.68,8.17Q671.43,239,665,244.51t-8.8,7.32a13.53,13.53,0,0,0-3.71,4.2q7.66-4.18,10.42-5.49a25.26,25.26,0,0,1,5.25-1.85,7.26,7.26,0,0,1,4.22.12,3.07,3.07,0,0,1,2,2.76,6.67,6.67,0,0,1-1.18,4.34q-1.42,2.25-2.21,3.28c-.53.68-.66,1.25-.39,1.7s1.4.5,3.39.16a26.49,26.49,0,0,0,6.16-1.89q3.16-1.38,5.13-2.33t2.92-.55q.95.39,1.42,3.08a95.27,95.27,0,0,1-10,4.5,34.51,34.51,0,0,1-5.43,1.3,29.56,29.56,0,0,1-4.16.43,12.54,12.54,0,0,1-4.08-.71,3.53,3.53,0,0,1-2.47-2.92q-.39-2.21,2.21-4.46t2.6-3q0-.79-2.09.28t-5,2.49l-5,2.49-5,2.53q-2.88,1.46-5.25,2.49a13.75,13.75,0,0,1-4.85,1.14,2.55,2.55,0,0,1-2.62-1.64Q637.81,262.59,639.78,260.89Z" transform="translate(0 -194.47)"/><path class="cls-1" d="M690.72,250.73a17.38,17.38,0,0,1,6.69-5.49,27.33,27.33,0,0,0,6.06-3.53,4.77,4.77,0,0,1,4.38-1.26,2.5,2.5,0,0,1,2.05,2.64,4.19,4.19,0,0,1-2.37,3.47,11.43,11.43,0,0,0-3.47,3,14.82,14.82,0,0,0-1.85,3.59,5.79,5.79,0,0,0,0,3.95,3.8,3.8,0,0,0,2.56,2.56,20.88,20.88,0,0,0,5.92.55,29.34,29.34,0,0,0,7.06-.83,20,20,0,0,0,5.33-2.17,5.25,5.25,0,0,1,3.87-1l.47,1.89a8.52,8.52,0,0,1-3,2.8,30.88,30.88,0,0,1-3.83,1.93,34.43,34.43,0,0,1-5.41,1.58q-3.52.79-8,1.34l-3.31.16a15.77,15.77,0,0,1-5.84-1.54,8.63,8.63,0,0,1-3-2.88,7.38,7.38,0,0,1-1.22-3.63,11.29,11.29,0,0,1,.43-3.61q.51-1.8-1.09.1a16.44,16.44,0,0,1-4.4,3.51q-2.8,1.62-4.74,2.58t-2.64-3Q687.8,254.53,690.72,250.73Zm38.32-31-1.42-.39q-2.13-2.45-3.24-3.55a9.41,9.41,0,0,1,3.95-3.95l1.5-.08c1.26.58,1.92,1.34,2,2.29a3.69,3.69,0,0,0,2,2.68l-.55,1.34A12.69,12.69,0,0,1,729,219.69Z" transform="translate(0 -194.47)"/><path class="cls-1" d="M723.2,255.24a24,24,0,0,0,4.81-3.51,38.15,38.15,0,0,1,7.62-5.05q4.38-2.25,6.87-3.39a14.65,14.65,0,0,1,5.41-1.3A4.43,4.43,0,0,1,751,245.1a8.07,8.07,0,0,1-.39,4.66q-.91,2.49-6.59,8.41l12.43-7.3a21.07,21.07,0,0,1,5.52-2.49,3.44,3.44,0,0,1,3.59,1.3q1.5,1.78,0,5.17t-1,5.05q.51,1.66,7.58-.32A73.67,73.67,0,0,0,782.79,256a6.56,6.56,0,0,1-1.62,4.38q-1.39,1.3-8.6,3.63t-10.77,1.34q-3.55-1-4.5-3.08a6.18,6.18,0,0,1-.24-4.46q.71-2.37-4.14,1.1a84.45,84.45,0,0,1-8.48,5.45q-3.64,2-5.45,2.76a7.44,7.44,0,0,1-3.83-.83,3.47,3.47,0,0,1-1.54-3,4.63,4.63,0,0,1,2.09-3.95q2.25-1.81,4.34-3.79a8.24,8.24,0,0,0,2.56-4c.32-1.37-.49-1.8-2.41-1.3s-4.55,1.91-7.89,4.22-5.55,3.76-6.63,4.34a11.64,11.64,0,0,1-4.46,1.1Q721.62,256,723.2,255.24Z" transform="translate(0 -194.47)"/><path class="cls-1" d="M782.23,250.73a17.37,17.37,0,0,1,6.69-5.49,27.29,27.29,0,0,0,6.06-3.53,4.77,4.77,0,0,1,4.38-1.26,2.5,2.5,0,0,1,2.05,2.64,4.19,4.19,0,0,1-2.37,3.47,11.43,11.43,0,0,0-3.47,3,14.82,14.82,0,0,0-1.85,3.59,5.79,5.79,0,0,0,0,3.95,3.8,3.8,0,0,0,2.56,2.56,20.88,20.88,0,0,0,5.92.55,29.34,29.34,0,0,0,7.06-.83,20,20,0,0,0,5.33-2.17,5.25,5.25,0,0,1,3.87-1l.47,1.89a8.52,8.52,0,0,1-3,2.8,30.88,30.88,0,0,1-3.83,1.93,34.43,34.43,0,0,1-5.41,1.58q-3.52.79-8,1.34l-3.31.16a15.76,15.76,0,0,1-5.84-1.54,8.59,8.59,0,0,1-3-2.88,7.32,7.32,0,0,1-1.22-3.63,11.13,11.13,0,0,1,.43-3.61q.51-1.8-1.09.1a16.47,16.47,0,0,1-4.4,3.51q-2.81,1.62-4.74,2.58t-2.64-3Q779.31,254.53,782.23,250.73Zm38.32-31-1.42-.39q-2.13-2.45-3.24-3.55a9.41,9.41,0,0,1,3.95-3.95l1.5-.08c1.26.58,1.92,1.34,2,2.29a3.69,3.69,0,0,0,2,2.68l-.55,1.34A12.69,12.69,0,0,1,820.55,219.69Z" transform="translate(0 -194.47)"/><path class="cls-2" d="M203.93,360l2.57-1.38a7.11,7.11,0,0,0,2.49,3.78,6.86,6.86,0,0,0,4.25,1.34,6.45,6.45,0,0,0,4.89-1.85,7.14,7.14,0,0,0,1.76-5.12,6.42,6.42,0,0,0-1.18-4q-1.18-1.58-5.08-3.65-5-2.64-6.63-4.65a8,8,0,0,1,.73-10.55,8.69,8.69,0,0,1,6.17-2.21,8.57,8.57,0,0,1,4.32,1,7.85,7.85,0,0,1,3,3.15l-2.32,1.4a5,5,0,0,0-2-2.16,6.25,6.25,0,0,0-3.12-.74,5,5,0,0,0-5.32,5.3q0,3.47,5.73,6.47l1.58.83q4.22,2.32,5.64,4.39a9.25,9.25,0,0,1,1.42,5.36,9.82,9.82,0,0,1-15.21,8A10.53,10.53,0,0,1,203.93,360Z" transform="translate(0 -194.47)"/><path class="cls-2" d="M237.62,365.58V335.39h-9.09v-2.82h21.2v2.82h-9.11v30.19Z" transform="translate(0 -194.47)"/><path class="cls-2" d="M256.89,332.57h3v21.56q0,4.89,2.23,7.27t6.83,2.38q4.53,0,6.76-2.38t2.23-7.27V332.57h3v20.59q0,6.7-3,10t-9,3.3q-6.07,0-9-3.3t-3-10Z" transform="translate(0 -194.47)"/><path class="cls-2" d="M291.29,365.58v-33h5.14a48.47,48.47,0,0,1,9.76.68,12.39,12.39,0,0,1,5,2.32,13.87,13.87,0,0,1,4.19,5.64,22.33,22.33,0,0,1,0,15.8,13.24,13.24,0,0,1-4.15,5.54,13.4,13.4,0,0,1-4.89,2.35,40.07,40.07,0,0,1-8.86.7h-6.16Zm3-2.59h4.22a31.61,31.61,0,0,0,7.26-.58,8.53,8.53,0,0,0,3.63-2,12.32,12.32,0,0,0,3.13-4.83,21.16,21.16,0,0,0,0-13.26,11.47,11.47,0,0,0-3.17-4.74,9,9,0,0,0-3.86-2,36.35,36.35,0,0,0-8-.59h-3.25Z" transform="translate(0 -194.47)"/><path class="cls-2" d="M325.77,365.58v-33h3v33Z" transform="translate(0 -194.47)"/><path class="cls-2" d="M373.09,349.14a16.91,16.91,0,0,1-1.33,6.64,17.21,17.21,0,0,1-3.84,5.6,18.08,18.08,0,0,1-19.28,3.78,17.61,17.61,0,0,1-5.72-3.78,17.41,17.41,0,0,1-3.85-5.63,16.85,16.85,0,0,1-1.32-6.62,17.11,17.11,0,0,1,1.32-6.69,17.33,17.33,0,0,1,3.85-5.65,16.73,16.73,0,0,1,5.66-3.72,19,19,0,0,1,13.66,0,17,17,0,0,1,5.67,3.71,17.41,17.41,0,0,1,3.85,5.65A17.11,17.11,0,0,1,373.09,349.14ZM355.4,363.77a14.4,14.4,0,0,0,5.55-1.08,14.75,14.75,0,0,0,4.72-23.95,14,14,0,0,0-4.68-3.16,14.54,14.54,0,0,0-5.59-1.08,14.23,14.23,0,0,0-5.53,1.08,14.65,14.65,0,0,0-4.69,3.16,15,15,0,0,0-3.16,4.77,15.16,15.16,0,0,0,0,11.25,14.78,14.78,0,0,0,3.16,4.77,14.21,14.21,0,0,0,4.65,3.17A14.44,14.44,0,0,0,355.4,363.77Z" transform="translate(0 -194.47)"/><path class="cls-2" d="M397.64,365.58V331.17L421,358.79V332.57h2.8v34l-23.36-27.67v26.7Z" transform="translate(0 -194.47)"/><path class="cls-2" d="M468.14,349.14a16.91,16.91,0,0,1-1.33,6.64,17.21,17.21,0,0,1-3.84,5.6,18.08,18.08,0,0,1-19.28,3.78,17.61,17.61,0,0,1-5.72-3.78,17.41,17.41,0,0,1-3.85-5.63,16.85,16.85,0,0,1-1.32-6.62,17.11,17.11,0,0,1,1.32-6.69,17.33,17.33,0,0,1,3.85-5.65,16.73,16.73,0,0,1,5.66-3.72,19,19,0,0,1,13.66,0,17,17,0,0,1,5.67,3.71,17.41,17.41,0,0,1,3.85,5.65A17.11,17.11,0,0,1,468.14,349.14Zm-17.69,14.63a14.4,14.4,0,0,0,5.55-1.08,14.75,14.75,0,0,0,4.72-23.95,14,14,0,0,0-4.68-3.16,14.54,14.54,0,0,0-5.59-1.08,14.23,14.23,0,0,0-5.53,1.08,14.65,14.65,0,0,0-4.69,3.16,15,15,0,0,0-3.16,4.77,15.16,15.16,0,0,0,0,11.25,14.78,14.78,0,0,0,3.16,4.77,14.21,14.21,0,0,0,4.65,3.17A14.44,14.44,0,0,0,450.45,363.77Z" transform="translate(0 -194.47)"/><path class="cls-2" d="M480.42,365.58V335.39h-9.09v-2.82h21.2v2.82h-9.11v30.19Z" transform="translate(0 -194.47)"/><path class="cls-2" d="M491.95,365.58l14.5-34.32,13.89,34.32h-3.27l-4.22-11.18H499.37L495,365.58Zm8.43-13.75h11.5l-5.64-14.36Z" transform="translate(0 -194.47)"/><path class="cls-2" d="M546.39,365.58h-3.65l-11.59-15.74h-1.8v15.74h-3v-33h6.07q5.37,0,8,2.23t2.67,6.76a8,8,0,0,1-2.29,6.07,8.7,8.7,0,0,1-6.3,2.21Zm-17-30.4v12.2h3q4.19,0,5.85-1.34t1.66-4.57q0-3.41-1.71-4.85t-5.8-1.44Z" transform="translate(0 -194.47)"/><path class="cls-2" d="M553,365.58v-33h3v33Z" transform="translate(0 -194.47)"/><path class="cls-2" d="M566.57,365.58v-33h3v30.19h11.32v2.82Z" transform="translate(0 -194.47)"/><path class="cls-2" d="M588,365.58v-33H604.3v2.82H591v10.33H604.3v2.82H591v14.23H604.3v2.82Z" transform="translate(0 -194.47)"/></svg>